<?xml version="1.0" encoding="utf-8"?>
<!-- Generator: Adobe Illustrator 27.2.0, SVG Export Plug-In . SVG Version: 6.00 Build 0)  -->
<svg version="1.1" id="Calque_1" xmlns="http://www.w3.org/2000/svg" xmlns:xlink="http://www.w3.org/1999/xlink" x="0px" y="0px"
	 viewBox="0 0 657.8 144" style="enable-background:new 0 0 657.8 144;" xml:space="preserve">
<style type="text/css">
	.st0{fill:#313131;}
	.st1{fill:#3F3F3F;}
	.st2{fill:#F2F2F2;}
	.st3{fill:#373737;}
	.st4{fill:#FAFAFA;}
	.st5{font-family:'Sacramento-Regular';}
	.st6{font-size:50px;}
</style>
<g>
	<path d="M375.8,41.2c-3.5,12.3-0.5,23.6,4.9,35.4c0.1-4.1-1.4-7-2.1-10c-0.7-3.2-3.1-7.1-1.6-9.5c1.5-2.3,5.5,0.2,8.5,0.3
		c4.6,0.1,9.2-0.1,13.7-1.2c3.2-0.7,4.8-2.4,4.2-5.9c-0.6-3.3-0.9-6.7-0.9-10.1c2.5,0,3.6,12.1,3.2,18.6c-0.3,5-2.1,9.8-3.7,14.5
		c-3.1,9.3-4.4,18.7-1.7,28.4c0.2,0.9,0.6,1.8-0.2,2.6c-0.6,0.6-1.6,0.9-2.2,0.4c-0.8-0.7,0.6-0.7,0.7-1.3c0.1-1.7,0-2.9-3-2
		c-4.4,1.4-9.2,1.3-13.6,0c-2.9-0.9-3,0.2-2.8,1.9c0,0.5,1.9,0.9,0.2,1.5c-0.8,0.2-1.7-0.1-2-0.9c-0.2-0.7-0.1-1.6,0.1-2.3
		c2.7-9.8,1.4-19.4-2-28.7c-3.2-8.9-4.7-17.8-2.6-27.2c0.3-1.3,0.7-2.5,1.1-3.8c0.1-0.3,0.5-0.5,0.7-0.8
		C375.1,41.1,375.4,41.2,375.8,41.2z"/>
	<path d="M591.9,102.4c-4.8,3.2-8.2-0.8-12.1-0.7c-3.7,0.1-7.2,2.9-11.1,0.6c2.2-0.7,4.4-1.3,6.7-2c2.1-0.6,2.8-1.9,3-4
		c0.6-5.9-0.6-10.3-6.5-13.3c-4.7-2.4-7.3-6.8-6.8-12.4c0.6-7.5,4.5-14.6,2-22.4c2.3,4.4,3,9,1.4,13.7c1.7,0.2,2-0.8,2-1.4
		c0.1-4.5,2.6-4.6,6.2-4c3.9,0.6,7.9,0.4,11.7-1c1.7-0.6,3-0.1,3.5,1.5c1,3.7,2,7.4,2.6,11.1c1.1,6.7-1.2,12.3-7.2,15.3
		c-6.1,3.1-6.4,8-6,13.6c0.1,1.9,1.3,2.8,2.9,3.3C586.5,100.9,588.8,101.5,591.9,102.4z"/>
	<path d="M303.2,53.3c2.1,0.5,1.9,2.5,3.6,2.9c-0.7-2.4,0-2.8,2.5-2.5c10.4,1,20.8,0.8,31.2,0.2c2.6-0.2,5.2-0.5,7.5-2.7
		c0.3,4.5-1.7,7-4.8,8.8c-4.1,2.3-8,4.5-8.2,10.1c-0.1,2.3-2.6,3.5-4.6,4.6c-2.4,1.3-3.3,3-3.2,5.8c0.2,4.7,0.3,9.5,0,14.2
		c-0.2,3.7,1.4,5.3,4.7,6c1.9,0.4,3.7,0.9,6.3,1.5c-4.9,3.2-8.4-0.6-12.3-0.6c-3.8,0-7.2,3.9-11.5,1c1.8-1.5,4-1.4,6-2
		c2.7-0.8,4.2-2.2,4-5.3c-0.2-5-0.2-10,0-15c0.1-2.6-0.8-4.3-3.1-5.4c-2.9-1.4-4.7-3.6-4.8-7.1c-0.1-3.5-2.9-4.8-5.5-6.1
		C307.5,60.1,304.2,58.1,303.2,53.3z"/>
	<path d="M275.3,100c0.6,2,3.2,0.8,4.8,3.5c-4.2-1.4-7.7-0.8-12-0.9c1.9-1.1,3-1.8,4.2-2.5c0.8-6.1,0.6-12.1,0.1-18.2
		c-4.3-4.3-7.8-9.1-8.1-15.5c-0.3-1.1-0.3-2.2-0.1-3.3c1.1-2.9,0.4-6.3,2.5-8.9c0.3-2.5,1.6-3.6,4.3-3.1c1.7,0.3,3.4,0.2,5.1,0.1
		c4.5-0.2,4.7-0.4,5-4.7c6,9.2,3.6,24.2-5.6,35.5C274.8,87.9,275.1,94,275.3,100z"/>
	<path d="M633.7,44.9c-1.6,6.2-3.4,12.3-2.6,18.8c0.2,1.7,0.7,3.3,1.8,4.8c0.2-0.2,0.4-0.4,0.4-0.5c-1.2-4.1,0.4-4.4,4-3.6
		c4.4,1.1,8.9,0.8,13.3-0.3c3-0.7,4.4-2.4,4.1-5.7c-0.4-4.5-1.5-8.9-2.1-13.4c3.6,6.9,6.4,14,4.7,22c-0.9,4.3-4.3,6.9-7.9,8.9
		c-3.8,2.1-5.4,4.9-5,9.3c0.3,3.1,0.3,6.3,0,9.5c-0.4,3.7,1.2,5.4,4.6,6c1.9,0.4,3.7,0.9,6.2,1.5c-4.8,3.3-8.3-0.6-12.1-0.6
		s-7.2,3.8-11.5,1.1c1.9-1.5,4.1-1.5,6-2c2.6-0.8,4-2.1,3.8-5c-0.2-4.2-0.2-8.4,0-12.6c0.1-2.7-0.9-4.5-3.1-5.9
		c-1.7-1-3.3-2.2-4.9-3.4c-1.9-1.5-3.6-3.2-4.3-5.5C626.5,59.6,629.9,52.2,633.7,44.9z"/>
	<path d="M504.2,78.7c0,4,0,8,0,12c0.4,0,0.9,0,1.3,0.1c0.2-1.5,0.3-3,0.6-4.4c0.2-1-0.2-2.8,1.7-2.4c1.2,0.3,3.1-0.3,3.1,2.5
		c0,3,3.5,2.6,5.4,3.5c2,0.9,2.4-1.1,2.8-2.4c0.6-1.7,1.8-1.9,3.3-2.1c3.7-0.2,7.3-0.7,11-1.1c2.4-0.2,3.4-1.4,3.3-3.9
		c-0.2-3.2,0-6.4,0-9.9c2,0.8,1.7,2,1.6,2.9c-0.1,9.1-0.3,18.2-0.6,27.2c0,0.8-0.1,1.6-0.3,2.3c-0.2,1-1.1,1.2-1.9,0.9
		c-1.8-0.6,0.1-1,0.2-1.5c0.5-2.6-0.5-2.4-2.5-1.9c-8.3,2.2-16.7,2.2-25,0.2c-2.6-0.6-4.8-1.6-4.3,3c-0.8-2.5-0.9-4.5-0.6-6.5
		c-0.8-5-0.1-10-0.4-15C503.6,81.2,502,79.4,504.2,78.7z"/>
	<path d="M437.5,56.7c4.5,2.8,7.8,6.8,11.5,10.7c0.9-1.4-1.1-2-0.4-3.5c10,1.1,20.1,1.8,27.4-7.9c0.5,2.2-0.8,2.9-1.6,3.7
		c-4.2,4.3-8.5,8.6-12.2,13.4c-2.6,3.3-4.1,6.9-3.8,11.3c0.3,3.5,0.3,7.1,0,10.7s1.4,5,4.5,5.7c1.9,0.4,3.7,0.9,6.3,1.5
		c-4.9,3.3-8.4-0.6-12.3-0.6c-3.8,0-7.1,4-11.3,1.1c2-1.6,4.4-1.5,6.6-2.2c2.3-0.8,3.5-2,3.3-4.6c-0.2-2.9-0.3-5.8,0-8.7
		c0.8-6.6-1.7-11.8-6-16.5c-2.1-2.3-4.2-4.7-6.3-7.1C441.1,61.4,438.6,59.7,437.5,56.7z"/>
	<path d="M586.8,53.1c1-2,0.3-3.1-1-4.3c-2.1-1.9-3.8-4.1-4.6-6.8c-0.6-2.1-0.2-3.5,2.5-2.6c3,1,6,2,9,2.9c1.6,0.4,2.4,1.4,3.1,2.8
		c1.1,2.2,2.4,4.4,3.5,6.6c0.6,1.1,2,2.3,1.1,3.5c-1.1,1.4-3,0.8-4.4,0.3c-1.7-0.6-3.4-1.4-5-2.4C589.8,52.2,588.6,51.7,586.8,53.1z
		"/>
	<path d="M475.2,47.8c0.5,5.1-0.3,9.6-6.4,10.1C466.7,51.8,470.3,49.1,475.2,47.8z"/>
	<path class="st0" d="M504.2,78.7c-0.6,1-0.7,2-0.7,3.2c-0.2,0.6-0.5,0.6-0.7,0c0-3.9,0-7.9,0-11.8
		C504.6,72.9,504.3,75.8,504.2,78.7z"/>
	<path d="M265.2,54.8c-1.5-4,0.6-7.2,2.1-10.6c0.3,3.4-1.5,6.6-1.3,10C265.8,54.5,265.5,54.7,265.2,54.8z"/>
	<path class="st1" d="M272.4,81.9c1.3,6.1,1.4,12.1-0.1,18.2C273,94,272.8,87.9,272.4,81.9z"/>
	<path class="st1" d="M275.3,100c-0.9-6.1-1.2-12.1,0.2-18.2C275.4,87.9,275.3,94,275.3,100z"/>
	<path d="M265.1,62.9c-0.3,1.2-0.5,2.3-0.8,3.5c-0.5-3.7-2-7.5,1-10.9C265.9,57.9,265.9,60.4,265.1,62.9z"/>
	<path class="st2" d="M265.1,62.9c0.1-2.5,0.1-5,0.2-7.5c-0.1-0.2-0.1-0.5-0.1-0.7c0.3-0.2,0.5-0.4,0.8-0.6c0.2,0,0.5,0,0.7,0
		c-0.3,3.5-0.9,7-0.5,10.7C264.8,64.5,265.4,63.5,265.1,62.9z"/>
	<path class="st3" d="M502.8,81.9c0.2,0,0.5,0,0.7,0c0,5.2,0,10.3,0,15.5C502.4,92.2,502.8,87,502.8,81.9z"/>
	<path class="st4" d="M526.5,88c2.4,1.4,3.9,3.8,3.9,6c-0.1,2.8-3.4,3.1-5.6,4.2c-1,0.5-4.7-4.6-4.2-6
		C521.6,89.6,524.4,89.3,526.5,88z"/>
</g>
<g>
	<g>
		<path d="M0,34.6"/>
	</g>
</g>
<text transform="matrix(1 0 0 1 77.8929 57.9969)"><tspan x="0" y="0" class="st5 st6">Bar</tspan><tspan x="-57.5" y="51" class="st5 st6">chez Jeannot</tspan></text>
</svg>
